<svg xmlns="http://www.w3.org/2000/svg" xmlns:xlink="http://www.w3.org/1999/xlink" xmlns:lucid="lucid" width="1311.59" height="840"><g transform="translate(-108.41301697193367 -40)" lucid:page-tab-id="0_0"><path d="M0 0h1760v1360H0z" fill="#fff"/><path d="M160 106a6 6 0 0 1 6-6h148a6 6 0 0 1 6 6v108a6 6 0 0 1-6 6H166a6 6 0 0 1-6-6z" stroke="#3a414a" fill="#fff"/><use xlink:href="#a" transform="matrix(1,0,0,1,172,112) translate(42.135802469135804 26.77777777777778)"/><use xlink:href="#b" transform="matrix(1,0,0,1,172,112) translate(6.981481481481481 53.44444444444445)"/><use xlink:href="#c" transform="matrix(1,0,0,1,172,112) translate(31.02469135802469 80.11111111111111)"/><path d="M200 606a6 6 0 0 1 6-6h368a6 6 0 0 1 6 6v248a6 6 0 0 1-6 6H206a6 6 0 0 1-6-6z" stroke="#3a414a" fill="#fff"/><use xlink:href="#d" transform="matrix(1,0,0,1,205,605) translate(185 25.59027777777778)"/><use xlink:href="#d" transform="matrix(1,0,0,1,205,605) translate(185 52.25694444444445)"/><use xlink:href="#d" transform="matrix(1,0,0,1,205,605) translate(185 78.92361111111111)"/><use xlink:href="#d" transform="matrix(1,0,0,1,205,605) translate(185 105.5902777777778)"/><use xlink:href="#d" transform="matrix(1,0,0,1,205,605) translate(185 132.25694444444446)"/><use xlink:href="#d" transform="matrix(1,0,0,1,205,605) translate(185 158.92361111111111)"/><use xlink:href="#d" transform="matrix(1,0,0,1,205,605) translate(185 185.59027777777777)"/><use xlink:href="#d" transform="matrix(1,0,0,1,205,605) translate(185 212.25694444444443)"/><use xlink:href="#e" transform="matrix(1,0,0,1,205,605) translate(160.30864197530863 238.9236111111111)"/><path d="M580 66a6 6 0 0 1 6-6h368a6 6 0 0 1 6 6v248a6 6 0 0 1-6 6H586a6 6 0 0 1-6-6z" stroke="#3a414a" fill="#fff"/><use xlink:href="#d" transform="matrix(1,0,0,1,585,65) translate(185 25.59027777777778)"/><use xlink:href="#d" transform="matrix(1,0,0,1,585,65) translate(185 52.25694444444445)"/><use xlink:href="#d" transform="matrix(1,0,0,1,585,65) translate(185 78.92361111111111)"/><use xlink:href="#d" transform="matrix(1,0,0,1,585,65) translate(185 105.5902777777778)"/><use xlink:href="#d" transform="matrix(1,0,0,1,585,65) translate(185 132.25694444444446)"/><use xlink:href="#d" transform="matrix(1,0,0,1,585,65) translate(185 158.92361111111111)"/><use xlink:href="#d" transform="matrix(1,0,0,1,585,65) translate(185 185.59027777777777)"/><use xlink:href="#d" transform="matrix(1,0,0,1,585,65) translate(185 212.25694444444443)"/><use xlink:href="#e" transform="matrix(1,0,0,1,585,65) translate(160.30864197530863 238.9236111111111)"/><path d="M610 86a6 6 0 0 1 6-6h308a6 6 0 0 1 6 6v148a6 6 0 0 1-6 6H616a6 6 0 0 1-6-6z" stroke="#3a414a" fill="#fff"/><use xlink:href="#f" transform="matrix(1,0,0,1,615,85) translate(113.11728395061728 78.71527777777777)"/><path d="M400 626a6 6 0 0 1 6-6h148a6 6 0 0 1 6 6v68a6 6 0 0 1-6 6H406a6 6 0 0 1-6-6z" stroke="#3a414a" fill="#54c45e"/><use xlink:href="#g" transform="matrix(1,0,0,1,412,632) translate(34.75925925925926 17.77777777777778)"/><use xlink:href="#h" transform="matrix(1,0,0,1,412,632) translate(35.37654320987654 44.44444444444444)"/><path d="M220 626a6 6 0 0 1 6-6h148a6 6 0 0 1 6 6v68a6 6 0 0 1-6 6H226a6 6 0 0 1-6-6z" stroke="#54c45e" fill="#54c45e"/><use xlink:href="#g" transform="matrix(1,0,0,1,232,632) translate(34.75925925925926 17.77777777777778)"/><use xlink:href="#h" transform="matrix(1,0,0,1,232,632) translate(35.37654320987654 44.44444444444444)"/><path d="M301 618.54h-2v-2.03h2zm0-10.14h-2v-4.06h2zm0-12.17h-2v-4.06h2zm0-12.17h-2V580h2zm0-12.17h-2v-4.07h2zm0-12.18h-2v-4.06h2zm0-12.17h-2v-4.06h2zm0-12.17h-2v-4.06h2zm0-12.17h-2v-4.04h2zm0-12.16h-2V507h2zm0-12.17h-2v-4.05h2zm0-12.17h-2v-4.05h2zm0-12.16h-2v-4.06h2zm0-12.17h-2v-4.06h2zm0-12.17h-2v-4.06h2zm.16-15.36l-.1.38-.06.82v2h-2v-2.08l.08-1.06.13-.53zm5.9-3.77h-1.88l-.72.18-.37.15-.77-1.85.5-.2 1.1-.28h2.14zm12.1 0h-4.03v-2h4.02zm12.07 0h-4.03v-2h4.03zm12.08 0h-4.02v-2h4.03zm12.08 0h-4.02v-2h4.02zm12.08 0h-4.02v-2h4.02zm12.08 0h-4.03v-2h4.04zm12.08 0h-4.03v-2h4.02zm12.07 0h-4.03v-2h4.02zm12.07 0h-4.03v-2h4.03zm12.08-.02h-4.03v-2h4.03zm12.08 0h-4.03v-2h4.02zm12.07 0h-4.02v-2H452zm12.08 0h-4.03v-2h4.03zm12.08 0h-4.03v-2h4.03zm12.07 0h-4.02v-2h4.03zm12.08 0h-4v-2h4zm12.1 0h-4.04v-2h4.03zm12.07 0h-4.03v-2h4.03zm12.07 0h-4.02v-2h4.02zm12.08-.02h-4.02v-2h4.02zm12.08 0h-4.03v-2h4.03zm12.08 0h-4.03v-2h4.03zm12.07 0h-4.02v-2h4.02zm12.08 0h-4.03v-2h4.03zm12.08 0H605v-2H609zm12.1 0h-4.04v-2h4.02zm12.06 0h-4.02v-2h4.02zm12.08 0h-4.03v-2h4.04zm12.08 0h-4.03v-2h4.02zm12.07 0h-4.03v-2h4.02zm12.07-.02h-4.02v-2h4.02zm12.08 0h-4.03v-2h4.03zm12.08 0h-4.03v-2h4.03zm12.07 0h-4.02v-2h4.02zm12.08 0h-4.02v-2h4.02zm12.08 0h-4.03v-2h4.03zm12.08 0h-4.03v-2h4.04zm11.7-.2l-.54.12-1.06.08H762v-2h1.96l.82-.06.38-.1zm5.3-7.84v2.1l-.28 1.1-.2.5-1.86-.75.15-.36.18-.72v-1.86zm0-11.85v3.96h-2v-3.95zm0-11.85v3.95h-2v-3.95zm0-11.85v3.95h-2v-3.95zm0-11.86v3.95h-2v-3.96zm0-11.85v3.94h-2v-3.95zm.02-11.87v3.95h-2v-3.95zm0-11.85v3.95h-2v-3.95zm0-23.7v.7h-2v-.72zm.02-11.87v3.96h-2v-3.95zm0-11.84v3.95h-2v-3.95zm0-11.86v3.95h-2v-3.95zm.02-11.86v3.96h-2v-3.96zm0-9.87v1.97h-2v-1.98z" stroke="#e81313" stroke-width=".05" fill="#e81313"/><path d="M301 619.54h-2v-1.03h2z" fill="#e81313"/><path d="M301.02 619.56h-2.04v-1.07h2.04zm-2-1.02v.97h1.96v-.96z" stroke="#e81313" stroke-width=".05" fill="#e81313"/><path d="M774.64 257.97h-9.28L770 243.7z" fill="#e81313"/><path d="M776 258.97h-12l6-18.5zm-9.26-2h6.52L770 246.94zM481 618.54h-2v-2.03h2zm0-10.14h-2v-4.06h2zm0-12.17h-2v-4.06h2zm0-12.17h-2V580h2zm0-12.17h-2v-4.07h2zm0-12.18h-2v-4.06h2zm0-12.17h-2v-4.06h2zm0-12.17h-2v-4.06h2zm0-12.17h-2v-4.04h2zm0-12.16h-2V507h2zm0-12.17h-2v-4.05h2zm0-12.17h-2v-4.05h2zm0-12.16h-2v-4.06h2zm0-12.17h-2v-4.06h2zm0-12.17h-2v-4.06h2zm.16-15.36l-.1.38-.06.82v2h-2v-2.08l.08-1.06.13-.53zm5.92-3.77h-1.9l-.72.18-.37.15-.77-1.85.5-.2 1.1-.28h2.15zm12.13 0h-4.03v-2h4.04zm12.14 0h-4.04v-2h4.04zm12.13 0h-4.05v-2h4.05zm12.12 0h-4.05v-2h4.04zm12.12 0h-4.04v-2h4.04zm12.13-.02h-4.04v-2h4.05zm12.13 0h-4.05v-2h4.05zm12.13 0h-4.04v-2h4.04zm12.13 0h-4.04v-2h4.03zm12.13 0h-4.04v-2h4.04zm12.13 0h-4.05v-2h4.04zm12.12-.02h-4.05v-2h4.05zm12.12 0h-4.04v-2h4.04zm12.13 0h-4.04v-2h4.04zm12.13 0h-4.04v-2H669zm12.13 0h-4.05v-2h4.05zm12.12 0h-4.04v-2h4.05zm12.13 0h-4.04v-2h4.04zm12.13-.02h-4.03v-2h4.04zm12.14 0h-4.04v-2h4.04zm12.13 0h-4.05v-2h4.05zm12.12 0h-4.05v-2h4.04zm11.73-.2l-.53.12-1.06.08h-2.06v-2h1.98l.82-.06.38-.1zm5.3-7.84v2.1l-.27 1.1-.2.5-1.86-.75.15-.36.18-.72v-1.86zm0-11.85v3.96h-2v-3.95zm0-11.85v3.95h-2v-3.95zm0-11.85v3.95h-2v-3.95zm.02-11.86v3.95h-2v-3.96zm0-11.85v3.94h-2v-3.95zm0-11.87v3.95h-2v-3.95zm0-11.85v3.95h-2v-3.95zm.02-23.7v.7h-2v-.72zm0-11.87v3.96h-2v-3.95zm.02-11.84l-.02 3.95h-2v-3.95zm0-11.86v3.95h-2v-3.95zm0-11.86v3.96h-2v-3.96zm0-9.87v1.97h-2v-1.98z" stroke="#e81313" stroke-width=".05" fill="#e81313"/><path d="M481 619.54h-2v-1.03h2z" fill="#e81313"/><path d="M481.02 619.56h-2.04v-1.07h2.04zm-2-1.02v.97h1.96v-.96z" stroke="#e81313" stroke-width=".05" fill="#e81313"/><path d="M774.64 257.97h-9.28L770 243.7z" fill="#e81313"/><path d="M776 258.97h-12l6-18.5zm-9.26-2h6.52L770 246.94z" stroke="#e81313" stroke-width=".05" fill="#e81313"/><path d="M610 606a6 6 0 0 1 6-6h368a6 6 0 0 1 6 6v248a6 6 0 0 1-6 6H616a6 6 0 0 1-6-6z" stroke="#3a414a" fill="#fff"/><use xlink:href="#d" transform="matrix(1,0,0,1,615,605) translate(185 25.59027777777778)"/><use xlink:href="#d" transform="matrix(1,0,0,1,615,605) translate(185 52.25694444444445)"/><use xlink:href="#d" transform="matrix(1,0,0,1,615,605) translate(185 78.92361111111111)"/><use xlink:href="#d" transform="matrix(1,0,0,1,615,605) translate(185 105.5902777777778)"/><use xlink:href="#d" transform="matrix(1,0,0,1,615,605) translate(185 132.25694444444446)"/><use xlink:href="#d" transform="matrix(1,0,0,1,615,605) translate(185 158.92361111111111)"/><use xlink:href="#d" transform="matrix(1,0,0,1,615,605) translate(185 185.59027777777777)"/><use xlink:href="#d" transform="matrix(1,0,0,1,615,605) translate(185 212.25694444444443)"/><use xlink:href="#e" transform="matrix(1,0,0,1,615,605) translate(160.30864197530863 238.9236111111111)"/><path d="M810 626a6 6 0 0 1 6-6h148a6 6 0 0 1 6 6v68a6 6 0 0 1-6 6H816a6 6 0 0 1-6-6z" stroke="#3a414a" fill="#54c45e"/><use xlink:href="#g" transform="matrix(1,0,0,1,822,632) translate(34.75925925925926 17.77777777777778)"/><use xlink:href="#h" transform="matrix(1,0,0,1,822,632) translate(35.37654320987654 44.44444444444444)"/><path d="M630 626a6 6 0 0 1 6-6h148a6 6 0 0 1 6 6v68a6 6 0 0 1-6 6H636a6 6 0 0 1-6-6z" stroke="#54c45e" fill="#54c45e"/><use xlink:href="#g" transform="matrix(1,0,0,1,642,632) translate(34.75925925925926 17.77777777777778)"/><use xlink:href="#h" transform="matrix(1,0,0,1,642,632) translate(35.37654320987654 44.44444444444444)"/><path d="M1020 606a6 6 0 0 1 6-6h368a6 6 0 0 1 6 6v248a6 6 0 0 1-6 6h-368a6 6 0 0 1-6-6z" stroke="#3a414a" fill="#fff"/><use xlink:href="#d" transform="matrix(1,0,0,1,1025,605) translate(185 25.59027777777778)"/><use xlink:href="#d" transform="matrix(1,0,0,1,1025,605) translate(185 52.25694444444445)"/><use xlink:href="#d" transform="matrix(1,0,0,1,1025,605) translate(185 78.92361111111111)"/><use xlink:href="#d" transform="matrix(1,0,0,1,1025,605) translate(185 105.5902777777778)"/><use xlink:href="#d" transform="matrix(1,0,0,1,1025,605) translate(185 132.25694444444446)"/><use xlink:href="#d" transform="matrix(1,0,0,1,1025,605) translate(185 158.92361111111111)"/><use xlink:href="#d" transform="matrix(1,0,0,1,1025,605) translate(185 185.59027777777777)"/><use xlink:href="#d" transform="matrix(1,0,0,1,1025,605) translate(185 212.25694444444443)"/><use xlink:href="#e" transform="matrix(1,0,0,1,1025,605) translate(160.30864197530863 238.9236111111111)"/><path d="M1220 626a6 6 0 0 1 6-6h148a6 6 0 0 1 6 6v68a6 6 0 0 1-6 6h-148a6 6 0 0 1-6-6z" stroke="#3a414a" fill="#fff7a1"/><use xlink:href="#g" transform="matrix(1,0,0,1,1232,632) translate(34.75925925925926 17.77777777777778)"/><use xlink:href="#h" transform="matrix(1,0,0,1,1232,632) translate(35.37654320987654 44.44444444444444)"/><path d="M1040 626a6 6 0 0 1 6-6h148a6 6 0 0 1 6 6v68a6 6 0 0 1-6 6h-148a6 6 0 0 1-6-6z" stroke="#54c45e" fill="#54c45e"/><use xlink:href="#g" transform="matrix(1,0,0,1,1052,632) translate(34.75925925925926 17.77777777777778)"/><use xlink:href="#h" transform="matrix(1,0,0,1,1052,632) translate(35.37654320987654 44.44444444444444)"/><path d="M338.97 160h2m8 0h4m8 0h4m8 0h4m8 0h4m8 0h4m8 0H413m8 0h4m8 0h4m8 0h4m8 0h4m8 0h4m8 0h4m8 0h4m8 0h4m8 0h4.02m8 0h4m8 0h4m8 0h4m8 0h4m8 0h4m8 0h2" stroke="#e81313" stroke-width="2" fill="none"/><path d="M323.7 160l14.27-4.64v9.28zM606.3 160l-14.27 4.64v-9.28z" stroke="#e81313" stroke-width="2" fill="#e81313"/><path d="M200 186a6 6 0 0 1 6-6h148a6 6 0 0 1 6 6v108a6 6 0 0 1-6 6H206a6 6 0 0 1-6-6z" stroke="#3a414a" fill="#fff"/><g><use xlink:href="#a" transform="matrix(1,0,0,1,212,192) translate(42.135802469135804 26.77777777777778)"/><use xlink:href="#b" transform="matrix(1,0,0,1,212,192) translate(6.981481481481481 53.44444444444445)"/><use xlink:href="#c" transform="matrix(1,0,0,1,212,192) translate(31.02469135802469 80.11111111111111)"/></g><path d="M378.97 240h2.08m8.34 0h4.15m8.34 0h4.16m8.33 0h4.16m8.34 0h4.17m8.33 0h4.17m8.34 0h4.18m8.33 0h4.18m8.34 0H479l.94-.07.46-.1m4.13-3.54l.18-.45.23-.9V233m0-7.66v-3.83m.02-7.66v-3.83m0-7.66l.02-3.83m0-7.66v-3.84m.02-7.66v-3.83m0-7.66V166l.07-.94.1-.46m3.54-4.13l.45-.18.9-.23h2.12m8.4 0h4.22m8.4 0l4.2-.02m8.42 0h4.2m8.42 0h4.2m8.43-.02h4.2m8.42 0h4.2m8.4-.02h4.22m8.4 0h2.1" stroke="#e81313" stroke-width="2" fill="none"/><path d="M363.7 240l14.27-4.64v9.28zM606.3 160l-14.27 4.64v-9.28z" stroke="#e81313" stroke-width="2" fill="#e81313"/><path d="M700 186a6 6 0 0 1 6-6h148a6 6 0 0 1 6 6v48a6 6 0 0 1-6 6H706a6 6 0 0 1-6-6z" stroke="#3a414a" fill="#fff"/><g><use xlink:href="#i" transform="matrix(1,0,0,1,705,185) translate(23.82716049382715 30.27777777777778)"/></g><path d="M180.54 653.96l.06.82.18.76.3.73.4.67.52.6.6.5.67.4.72.3.72.2 16.32.06v2l-16.56-.07-1.1-.27-1.02-.42-.94-.57-.84-.72-.7-.83-.58-.94-.42-1.02-.26-1.06-.08-1.06.04-193.37h2zM281 334.5l-.08 1.06-.26 1.07-.42 1-.57.95-.72.84-.83.7-.94.58-1.02.42-1.1.27-89.48.06-.83.07-.76.18-.73.3-.67.42-.6.5-.5.6-.42.67-.3.72-.17.72v93.7h-2V345.4l.28-1.1.42-1.02.57-.93.7-.84.85-.7.94-.58 1-.42 1.08-.25 1.06-.1 89.32-.06.72-.18.73-.3.67-.4.6-.52.5-.6.4-.67.3-.72.2-.76.06-.82v-32.96h2z" stroke="#1071e5" stroke-width=".05" fill="#1071e5"/><path d="M281 301.5h-2v-1.04h2z" fill="#1071e5"/><path d="M281.02 301.5h-2.04v-1.06h2.04zm-2-1v.96h1.96v-.97z" stroke="#1071e5" stroke-width=".05" fill="#1071e5"/><path d="M216.3 660l-14.27 4.64v-9.28z" fill="#1071e5"/><path d="M219.54 660l-18.5 6v-12zm-16.5 3.26l10.02-3.26-10.03-3.26z" stroke="#1071e5" stroke-width=".05" fill="#1071e5"/><g><use xlink:href="#j" transform="matrix(1,0,0,1,119.41301697193367,439.33319801015836) translate(0 14.222222222222223)"/><use xlink:href="#k" transform="matrix(1,0,0,1,119.41301697193367,439.33319801015836) translate(46.320987654320994 14.222222222222223)"/></g><path d="M280 301.46V454a6 6 0 0 0 6 6h418a6 6 0 0 1 6 6v135.03" stroke="#1071e5" stroke-width="2" fill="none"/><path d="M281 301.5h-2v-1.04h2z" stroke="#1071e5" stroke-width=".05" fill="#1071e5"/><path d="M710 616.3l-4.64-14.27h9.28z" stroke="#1071e5" stroke-width="2" fill="#1071e5"/><path d="M891 618.54h-2v-2.03h2zm0-10.14h-2v-4.06h2zm0-12.17h-2v-4.06h2zm0-12.17h-2V580h2zm0-12.17h-2v-4.07h2zm0-12.18h-2v-4.06h2zm0-12.17h-2v-4.06h2zm0-12.17h-2v-4.06h2zm0-12.17h-2v-4.04h2zm0-12.16h-2V507h2zm0-12.17h-2v-4.05h2zm0-12.17h-2v-4.05h2zm0-12.16h-2v-4.06h2zm0-12.17h-2v-4.06h2zm0-12.17h-2v-4.06h2zm-.08-15.3l.08 1.06v2.07h-2v-2l-.06-.8-.1-.4 1.95-.46zm-5.86-5.83l1.1.27.5.2-.75 1.86-.36-.15-.72-.18h-1.9v-2zm-10.2 0v2h-4.04v-2zm-12.1 0v2h-4.05v-2zm-12.12-.02v2h-4.03v-2zm-12.1 0v2h-4.04v-2zm-12.1-.02v2h-4.04v-2zm-12.1 0v2h-4.05v-2zm-12.1 0v2l-4.05-.02v-2zM790.1 429v2h-4.03v-2zm-14.9-.06l.82.06h1.98v2h-2.06l-1.06-.08-.53-.13.47-1.96zm-4.15-4.12l.18.72.15.37-1.85.77-.2-.5-.28-1.1v-2.1h2zm0-9.76h-2v-3.95h2zm0-11.86h-2v-3.95h2zm0-11.85h-2v-3.95h2zm-.02-11.86h-2v-3.96h2zm0-11.86h-2v-3.95h2zm0-11.86h-2v-3.95h2zm0-11.85h-2v-3.95h2zm-.02-26.96h-2v-.7h2zm0-8.6h-2v-3.96h2zm0-11.86h-2l-.02-3.94h2zm-.02-11.85h-2v-3.95h2zm0-11.85h-2v-3.96h2zm0-11.86h-2v-1.97h2z" stroke="#e81313" stroke-width=".05" fill="#e81313"/><path d="M891 619.54h-2v-1.03h2z" fill="#e81313"/><path d="M891.02 619.56H889v-1.07H891zm-2-1.02v.97H891v-.96z" stroke="#e81313" stroke-width=".05" fill="#e81313"/><path d="M774.64 257.97h-9.28L770 243.7z" fill="#e81313"/><path d="M776 258.97h-12l6-18.5zm-9.26-2h6.52L770 246.94z" stroke="#e81313" stroke-width=".05" fill="#e81313"/><g><use xlink:href="#l" transform="matrix(1,0,0,1,767.5308641975308,316.97197619124694) translate(0 14.222222222222223)"/></g><path d="M1121 618.54h-2v-2.03h2zm0-10.14h-2v-4.06h2zm0-12.17h-2v-4.06h2zm0-12.17h-2V580h2zm0-12.17h-2v-4.07h2zm0-12.18h-2v-4.06h2zm0-12.17h-2v-4.06h2zm0-12.17h-2v-4.06h2zm0-12.17h-2v-4.04h2zm0-12.16h-2V507h2zm0-12.17h-2v-4.05h2zm0-12.17h-2v-4.05h2zm0-12.16h-2v-4.06h2zm0-12.17h-2v-4.06h2zm0-12.17h-2v-4.06h2zm-.08-15.3l.08 1.06v2.07h-2v-2l-.06-.8-.1-.4 1.95-.46zm-5.86-5.83l1.1.27.5.2-.75 1.86-.36-.15-.72-.18h-1.9v-2zm-10.2 0v2h-4.04v-2zm-12.1 0v2h-4.05v-2zm-12.12 0v2h-4.03v-2zm-12.1 0v2h-4.04v-2zm-12.1 0v2h-4.04v-2zm-12.1 0v2h-4.05v-2zm-12.12 0v2l-4.03-.02v-2zm-12.1-.02v2h-4.04v-2zm-12.1 0v2h-4.04v-2zm-12.1 0v2h-4.05v-2zm-12.12 0v2h-4.03v-2zm-12.1 0v2h-4.04v-2zm-12.1 0v2h-4.04v-2zm-12.1 0v2h-4.05v-2zm-12.12-.02v2h-4.03v-2zm-12.1 0v2h-4.04v-2zm-12.1 0v2h-4.04v-2zm-12.1 0v2h-4.05v-2zm-12.12 0v2h-4.03v-2zm-12.1 0v2h-4.04v-2zm-12.1 0v2h-4.04v-2zm-12.1 0v2h-4.05v-2zm-12.12-.02v2h-4.03v-2zm-12.1 0v2h-4.04v-2zm-12.1 0v2h-4.04v-2zm-12.1 0v2h-4.05v-2zm-12.12 0v2h-4.03v-2zm-14.9-.06l.82.06h1.98v2h-2.06l-1.06-.08-.53-.13.47-1.96zm-4.15-4.12l.18.72.15.37-1.85.77-.2-.5-.28-1.1v-2.1h2zm0-9.76h-2v-3.95h2zm0-11.86h-2v-3.95h2zm0-11.85h-2v-3.95h2zm-.02-11.86h-2v-3.96h2zm0-11.86h-2v-3.95h2zm0-11.86h-2v-3.95h2zm0-11.85h-2v-3.95h2zm-.02-26.96h-2v-.7h2zm0-8.6h-2v-3.96h2zm0-11.86h-2l-.02-3.94h2zm-.02-11.85h-2v-3.95h2zm0-11.85h-2v-3.96h2zm0-11.86h-2v-1.97h2z" stroke="#e81313" stroke-width=".05" fill="#e81313"/><path d="M1121 619.54h-2v-1.03h2z" fill="#e81313"/><path d="M1121.03 619.56h-2.06v-1.07h2.06zm-2-1.02v.97h1.94v-.96z" stroke="#e81313" stroke-width=".05" fill="#e81313"/><path d="M774.64 257.97h-9.28L770 243.7z" fill="#e81313"/><path d="M776 258.97h-12l6-18.5zm-9.26-2h6.52L770 246.94z" stroke="#e81313" stroke-width=".05" fill="#e81313"/><path d="M281 453.97l.06.82.2.75.3.73.4.66.5.6.6.5.67.42.73.3.72.17 802.2.08 1.05.1 1.06.25 1 .42.95.57.83.7.72.85.57.93.42 1 .26 1.12.07 136.1h-2l-.07-135.86-.18-.74-.3-.72-.4-.67-.52-.6-.6-.5-.66-.42-.73-.3-.76-.18-.8-.06-802.36-.07-1.1-.26-1.02-.42-.94-.58-.83-.7-.72-.85-.57-.93-.42-1.03-.26-1.07-.08-1.05v-152.6h2z" stroke="#1071e5" stroke-width=".05" fill="#1071e5"/><path d="M281 301.5h-2v-1.04h2z" fill="#1071e5"/><path d="M281.02 301.5h-2.04v-1.06h2.04zm-2-1v.96h1.96v-.97z" stroke="#1071e5" stroke-width=".05" fill="#1071e5"/><path d="M1093.33 616.3l-4.64-14.25h9.27z" fill="#1071e5"/><path d="M1093.33 619.55l-6-18.5h12zm-3.26-16.5l3.26 10.03 3.26-10.03z" stroke="#1071e5" stroke-width=".05" fill="#1071e5"/><path d="M861.46 210h10.02m10 0h2m10.02 0h2m10.02 0h20.02m10.02 0h2m10 0h2m10.03 0h20m10.02 0h2m10.02 0h2m10 0h20.04m10 0h2m10.02 0h2m10.02 0h20.02m10.02 0h2m10 0h2m10.03 0h20m10.02 0h2m10.02 0h2m10 0h20.04m10 0h2m10.03 0h2m10.02 0h20.03m10 0h2m10.02 0h2m10.02 0h10l.94.07.9.22.88.35.8.5.72.6.6.72.5.8.37.88.23.9v10.22m0 10.2v2.06m0 10.2v2.05m0 10.2v20.43m0 10.22v2.04m0 10.22v2.04m.02 10.2v20.43m0 10.2v2.05m0 10.2v2.06m0 10.2v20.43m0 10.2v2.04m0 10.2v2.06m.02 10.2v20.43m0 10.2v2.05m0 10.2v2.05m0 10.22v20.42m0 10.2v2.05m.02 10.2v2.05m0 10.2v20.44m0 10.22v2.04m0 10.2v2.05m0 10.22v10.2" stroke="#fcce14" stroke-width="2" fill="none"/><path d="M861.5 211h-1.03v-2h1.02z" stroke="#fcce14" stroke-width=".05" fill="#fcce14"/><path d="M1300 616.3l-4.64-14.27h9.28z" stroke="#fcce14" stroke-width="2" fill="#fcce14"/><defs><path fill="#3a414a" d="M96-169c-40 0-48 33-48 73s9 75 48 75c24 0 41-14 43-38l32 2c-6 37-31 61-74 61-59 0-76-41-82-99-10-93 101-131 147-64 4 7 5 14 7 22l-32 3c-4-21-16-35-41-35" id="m"/><path fill="#3a414a" d="M24 0v-261h32V0H24" id="n"/><path fill="#3a414a" d="M24-231v-30h32v30H24zM24 0v-190h32V0H24" id="o"/><path fill="#3a414a" d="M100-194c63 0 86 42 84 106H49c0 40 14 67 53 68 26 1 43-12 49-29l28 8c-11 28-37 45-77 45C44 4 14-33 15-96c1-61 26-98 85-98zm52 81c6-60-76-77-97-28-3 7-6 17-6 28h103" id="p"/><path fill="#3a414a" d="M117-194c89-4 53 116 60 194h-32v-121c0-31-8-49-39-48C34-167 62-67 57 0H25l-1-190h30c1 10-1 24 2 32 11-22 29-35 61-36" id="q"/><path fill="#3a414a" d="M59-47c-2 24 18 29 38 22v24C64 9 27 4 27-40v-127H5v-23h24l9-43h21v43h35v23H59v120" id="r"/><g id="a"><use transform="matrix(0.06172839506172839,0,0,0.06172839506172839,0,0)" xlink:href="#m"/><use transform="matrix(0.06172839506172839,0,0,0.06172839506172839,11.11111111111111,0)" xlink:href="#n"/><use transform="matrix(0.06172839506172839,0,0,0.06172839506172839,15.987654320987653,0)" xlink:href="#o"/><use transform="matrix(0.06172839506172839,0,0,0.06172839506172839,20.864197530864196,0)" xlink:href="#p"/><use transform="matrix(0.06172839506172839,0,0,0.06172839506172839,33.20987654320987,0)" xlink:href="#q"/><use transform="matrix(0.06172839506172839,0,0,0.06172839506172839,45.55555555555555,0)" xlink:href="#r"/></g><path fill="#3a414a" d="M87 75C49 33 22-17 22-94c0-76 28-126 65-167h31c-38 41-64 92-64 168S80 34 118 75H87" id="s"/><path fill="#3a414a" d="M85-194c31 0 48 13 60 33l-1-100h32l1 261h-30c-2-10 0-23-3-31C134-8 116 4 85 4 32 4 16-35 15-94c0-66 23-100 70-100zm9 24c-40 0-46 34-46 75 0 40 6 74 45 74 42 0 51-32 51-76 0-42-9-74-50-73" id="t"/><path fill="#3a414a" d="M115-194c55 1 70 41 70 98S169 2 115 4C84 4 66-9 55-30l1 105H24l-1-265h31l2 30c10-21 28-34 59-34zm-8 174c40 0 45-34 45-75s-6-73-45-74c-42 0-51 32-51 76 0 43 10 73 51 73" id="u"/><path fill="#3a414a" d="M100-194c62-1 85 37 85 99 1 63-27 99-86 99S16-35 15-95c0-66 28-99 85-99zM99-20c44 1 53-31 53-75 0-43-8-75-51-75s-53 32-53 75 10 74 51 75" id="v"/><path fill="#3a414a" d="M179-190L93 31C79 59 56 82 12 73V49c39 6 53-20 64-50L1-190h34L92-34l54-156h33" id="w"/><path fill="#3a414a" d="M210-169c-67 3-38 105-44 169h-31v-121c0-29-5-50-35-48C34-165 62-65 56 0H25l-1-190h30c1 10-1 24 2 32 10-44 99-50 107 0 11-21 27-35 58-36 85-2 47 119 55 194h-31v-121c0-29-5-49-35-48" id="x"/><g id="b"><use transform="matrix(0.06172839506172839,0,0,0.06172839506172839,0,0)" xlink:href="#s"/><use transform="matrix(0.06172839506172839,0,0,0.06172839506172839,7.345679012345679,0)" xlink:href="#t"/><use transform="matrix(0.06172839506172839,0,0,0.06172839506172839,19.691358024691358,0)" xlink:href="#p"/><use transform="matrix(0.06172839506172839,0,0,0.06172839506172839,32.03703703703704,0)" xlink:href="#u"/><use transform="matrix(0.06172839506172839,0,0,0.06172839506172839,44.382716049382715,0)" xlink:href="#n"/><use transform="matrix(0.06172839506172839,0,0,0.06172839506172839,49.25925925925926,0)" xlink:href="#v"/><use transform="matrix(0.06172839506172839,0,0,0.06172839506172839,61.60493827160494,0)" xlink:href="#w"/><use transform="matrix(0.06172839506172839,0,0,0.06172839506172839,72.71604938271605,0)" xlink:href="#x"/><use transform="matrix(0.06172839506172839,0,0,0.06172839506172839,91.17283950617283,0)" xlink:href="#p"/><use transform="matrix(0.06172839506172839,0,0,0.06172839506172839,103.51851851851852,0)" xlink:href="#q"/><use transform="matrix(0.06172839506172839,0,0,0.06172839506172839,115.8641975308642,0)" xlink:href="#r"/></g><path fill="#3a414a" d="M106-169C34-169 62-67 57 0H25v-261h32l-1 103c12-21 28-36 61-36 89 0 53 116 60 194h-32v-121c2-32-8-49-39-48" id="y"/><path fill="#3a414a" d="M141-36C126-15 110 5 73 4 37 3 15-17 15-53c-1-64 63-63 125-63 3-35-9-54-41-54-24 1-41 7-42 31l-33-3c5-37 33-52 76-52 45 0 72 20 72 64v82c-1 20 7 32 28 27v20c-31 9-61-2-59-35zM48-53c0 20 12 33 32 33 41-3 63-29 60-74-43 2-92-5-92 41" id="z"/><path fill="#3a414a" d="M33-261c38 41 65 92 65 168S71 34 33 75H2C39 34 66-17 66-93S39-220 2-261h31" id="A"/><g id="c"><use transform="matrix(0.06172839506172839,0,0,0.06172839506172839,0,0)" xlink:href="#y"/><use transform="matrix(0.06172839506172839,0,0,0.06172839506172839,12.345679012345679,0)" xlink:href="#z"/><use transform="matrix(0.06172839506172839,0,0,0.06172839506172839,24.691358024691358,0)" xlink:href="#q"/><use transform="matrix(0.06172839506172839,0,0,0.06172839506172839,37.03703703703704,0)" xlink:href="#t"/><use transform="matrix(0.06172839506172839,0,0,0.06172839506172839,49.382716049382715,0)" xlink:href="#n"/><use transform="matrix(0.06172839506172839,0,0,0.06172839506172839,54.25925925925926,0)" xlink:href="#p"/><use transform="matrix(0.06172839506172839,0,0,0.06172839506172839,66.60493827160494,0)" xlink:href="#A"/></g><g id="e"><use transform="matrix(0.06172839506172839,0,0,0.06172839506172839,0,0)" xlink:href="#q"/><use transform="matrix(0.06172839506172839,0,0,0.06172839506172839,12.345679012345679,0)" xlink:href="#v"/><use transform="matrix(0.06172839506172839,0,0,0.06172839506172839,24.691358024691358,0)" xlink:href="#t"/><use transform="matrix(0.06172839506172839,0,0,0.06172839506172839,37.03703703703704,0)" xlink:href="#p"/></g><path fill="#3a414a" d="M114-163C36-179 61-72 57 0H25l-1-190h30c1 12-1 29 2 39 6-27 23-49 58-41v29" id="B"/><g id="f"><use transform="matrix(0.06172839506172839,0,0,0.06172839506172839,0,0)" xlink:href="#m"/><use transform="matrix(0.06172839506172839,0,0,0.06172839506172839,11.11111111111111,0)" xlink:href="#v"/><use transform="matrix(0.06172839506172839,0,0,0.06172839506172839,23.45679012345679,0)" xlink:href="#q"/><use transform="matrix(0.06172839506172839,0,0,0.06172839506172839,35.80246913580247,0)" xlink:href="#r"/><use transform="matrix(0.06172839506172839,0,0,0.06172839506172839,41.97530864197531,0)" xlink:href="#v"/><use transform="matrix(0.06172839506172839,0,0,0.06172839506172839,54.32098765432099,0)" xlink:href="#n"/><use transform="matrix(0.06172839506172839,0,0,0.06172839506172839,59.19753086419753,0)" xlink:href="#n"/><use transform="matrix(0.06172839506172839,0,0,0.06172839506172839,64.07407407407408,0)" xlink:href="#p"/><use transform="matrix(0.06172839506172839,0,0,0.06172839506172839,76.41975308641976,0)" xlink:href="#B"/></g><path fill="#3a414a" d="M206 0h-36l-40-164L89 0H53L-1-190h32L70-26l43-164h34l41 164 42-164h31" id="C"/><path fill="#3a414a" d="M143 0L79-87 56-68V0H24v-261h32v163l83-92h37l-77 82L181 0h-38" id="D"/><g id="g"><use transform="matrix(0.06172839506172839,0,0,0.06172839506172839,0,0)" xlink:href="#C"/><use transform="matrix(0.06172839506172839,0,0,0.06172839506172839,15.987654320987653,0)" xlink:href="#v"/><use transform="matrix(0.06172839506172839,0,0,0.06172839506172839,28.333333333333332,0)" xlink:href="#B"/><use transform="matrix(0.06172839506172839,0,0,0.06172839506172839,35.67901234567901,0)" xlink:href="#D"/><use transform="matrix(0.06172839506172839,0,0,0.06172839506172839,46.79012345679013,0)" xlink:href="#p"/><use transform="matrix(0.06172839506172839,0,0,0.06172839506172839,59.135802469135804,0)" xlink:href="#B"/></g><g id="h"><use transform="matrix(0.06172839506172839,0,0,0.06172839506172839,0,0)" xlink:href="#B"/><use transform="matrix(0.06172839506172839,0,0,0.06172839506172839,7.345679012345679,0)" xlink:href="#p"/><use transform="matrix(0.06172839506172839,0,0,0.06172839506172839,19.691358024691358,0)" xlink:href="#u"/><use transform="matrix(0.06172839506172839,0,0,0.06172839506172839,32.03703703703704,0)" xlink:href="#n"/><use transform="matrix(0.06172839506172839,0,0,0.06172839506172839,36.91358024691358,0)" xlink:href="#o"/><use transform="matrix(0.06172839506172839,0,0,0.06172839506172839,41.79012345679013,0)" xlink:href="#m"/><use transform="matrix(0.06172839506172839,0,0,0.06172839506172839,52.90123456790124,0)" xlink:href="#z"/></g><path fill="#3a414a" d="M84 4C-5 8 30-112 23-190h32v120c0 31 7 50 39 49 72-2 45-101 50-169h31l1 190h-30c-1-10 1-25-2-33-11 22-28 36-60 37" id="E"/><path fill="#3a414a" d="M135-143c-3-34-86-38-87 0 15 53 115 12 119 90S17 21 10-45l28-5c4 36 97 45 98 0-10-56-113-15-118-90-4-57 82-63 122-42 12 7 21 19 24 35" id="F"/><g id="i"><use transform="matrix(0.06172839506172839,0,0,0.06172839506172839,0,0)" xlink:href="#z"/><use transform="matrix(0.06172839506172839,0,0,0.06172839506172839,12.345679012345679,0)" xlink:href="#E"/><use transform="matrix(0.06172839506172839,0,0,0.06172839506172839,24.691358024691358,0)" xlink:href="#r"/><use transform="matrix(0.06172839506172839,0,0,0.06172839506172839,30.864197530864196,0)" xlink:href="#v"/><use transform="matrix(0.06172839506172839,0,0,0.06172839506172839,43.20987654320987,0)" xlink:href="#F"/><use transform="matrix(0.06172839506172839,0,0,0.06172839506172839,54.32098765432099,0)" xlink:href="#m"/><use transform="matrix(0.06172839506172839,0,0,0.06172839506172839,65.4320987654321,0)" xlink:href="#z"/><use transform="matrix(0.06172839506172839,0,0,0.06172839506172839,77.77777777777779,0)" xlink:href="#n"/><use transform="matrix(0.06172839506172839,0,0,0.06172839506172839,82.65432098765433,0)" xlink:href="#p"/><use transform="matrix(0.06172839506172839,0,0,0.06172839506172839,95.00000000000001,0)" xlink:href="#B"/></g><path fill="#333" d="M137-138c1-29-70-34-71-4 15 46 118 7 119 86 1 83-164 76-172 9l43-7c4 19 20 25 44 25 33 8 57-30 24-41C81-84 22-81 20-136c-2-80 154-74 161-7" id="G"/><path fill="#333" d="M185-48c-13 30-37 53-82 52C43 2 14-33 14-96s30-98 90-98c62 0 83 45 84 108H66c0 31 8 55 39 56 18 0 30-7 34-22zm-45-69c5-46-57-63-70-21-2 6-4 13-4 21h74" id="H"/><path fill="#333" d="M135-194c87-1 58 113 63 194h-50c-7-57 23-157-34-157-59 0-34 97-39 157H25l-1-190h47c2 12-1 28 3 38 12-26 28-41 61-42" id="I"/><path fill="#333" d="M88-194c31-1 46 15 58 34l-1-101h50l1 261h-48c-2-10 0-23-3-31C134-8 116 4 84 4 32 4 16-41 15-95c0-56 19-97 73-99zm17 164c33 0 40-30 41-66 1-37-9-64-41-64s-38 30-39 65c0 43 13 65 39 65" id="J"/><g id="j"><use transform="matrix(0.04938271604938272,0,0,0.04938271604938272,0,0)" xlink:href="#G"/><use transform="matrix(0.04938271604938272,0,0,0.04938271604938272,9.876543209876544,0)" xlink:href="#H"/><use transform="matrix(0.04938271604938272,0,0,0.04938271604938272,19.75308641975309,0)" xlink:href="#I"/><use transform="matrix(0.04938271604938272,0,0,0.04938271604938272,30.567901234567906,0)" xlink:href="#J"/></g><path fill="#333" d="M135-150c-39-12-60 13-60 57V0H25l-1-190h47c2 13-1 29 3 40 6-28 27-53 61-41v41" id="K"/><path fill="#333" d="M84 4C32 4 15-41 15-95c0-55 18-99 73-99 29 0 47 12 58 34l2-30h48l-1 265h-49V-32C136-9 114 4 84 4zm21-34c32 0 41-29 41-66 0-36-9-64-40-64-33 0-39 30-40 65 0 43 13 65 39 65" id="L"/><path fill="#333" d="M85 4C-2 5 27-109 22-190h50c7 57-23 150 33 157 60-5 35-97 40-157h50l1 190h-47c-2-12 1-28-3-38-12 25-28 42-61 42" id="M"/><path fill="#333" d="M115-3C79 11 28 4 28-45v-112H4v-33h27l15-45h31v45h36v33H77v99c-1 23 16 31 38 25v30" id="N"/><g id="k"><use transform="matrix(0.04938271604938272,0,0,0.04938271604938272,0,0)" xlink:href="#K"/><use transform="matrix(0.04938271604938272,0,0,0.04938271604938272,6.913580246913581,0)" xlink:href="#H"/><use transform="matrix(0.04938271604938272,0,0,0.04938271604938272,16.790123456790127,0)" xlink:href="#L"/><use transform="matrix(0.04938271604938272,0,0,0.04938271604938272,27.604938271604947,0)" xlink:href="#M"/><use transform="matrix(0.04938271604938272,0,0,0.04938271604938272,38.41975308641976,0)" xlink:href="#H"/><use transform="matrix(0.04938271604938272,0,0,0.04938271604938272,48.296296296296305,0)" xlink:href="#G"/><use transform="matrix(0.04938271604938272,0,0,0.04938271604938272,58.17283950617284,0)" xlink:href="#N"/><use transform="matrix(0.04938271604938272,0,0,0.04938271604938272,64.0493827160494,0)" xlink:href="#G"/></g><path fill="#333" d="M54 7L4-261h42L97 7H54" id="O"/><use transform="matrix(0.04938271604938272,0,0,0.04938271604938272,0,0)" xlink:href="#O" id="l"/></defs></g></svg>