<?xml version="1.0" encoding="UTF-8" standalone="no"?><!DOCTYPE svg PUBLIC "-//W3C//DTD SVG 1.1//EN" "http://www.w3.org/Graphics/SVG/1.1/DTD/svg11.dtd"><!-- Generated by graphviz version 2.40.1 (20161225.0304)
 --><!-- Title: G Pages: 1 --><svg xmlns="http://www.w3.org/2000/svg" xmlns:xlink="http://www.w3.org/1999/xlink" width="904pt" height="247pt" viewBox="0.00 0.00 903.69 247.00">
<g id="graph0" class="graph" transform="scale(1 1) rotate(0) translate(4 242.9993)">
<title>G</title>
<polygon fill="#ffffff" stroke="transparent" points="-4,4 -4,-242.9993 899.6886,-242.9993 899.6886,4 -4,4"/>
<!-- forward -->
<g id="node1" class="node">
<title>forward</title>
<ellipse fill="none" stroke="#000000" cx="631.8815" cy="-166.9993" rx="41.692" ry="18"/>
<text text-anchor="middle" x="631.8815" y="-162.7993" font-family="Times,serif" font-size="14.00" fill="#000000">forward</text>
</g>
<!-- combine -->
<g id="node2" class="node">
<title>combine</title>
<ellipse fill="none" stroke="#000000" cx="851.3974" cy="-100.9993" rx="44.0833" ry="18"/>
<text text-anchor="middle" x="851.3974" y="-96.7993" font-family="Times,serif" font-size="14.00" fill="#000000">combine</text>
</g>
<!-- forward&#45;&gt;combine -->
<g id="edge1" class="edge">
<title>forward-&gt;combine</title>
<path fill="none" stroke="#000000" d="M667.5069,-157.5602C695.7232,-149.9542 736.0816,-138.7861 771.1062,-127.9993 783.075,-124.3132 795.9653,-120.0918 807.8399,-116.0992"/>
<polygon fill="#000000" stroke="#000000" points="809.1845,-119.3391 817.533,-112.8159 806.9387,-112.7091 809.1845,-119.3391"/>
</g>
<!-- INPUT_ATTRIBUTE_NODE -->
<g id="node3" class="node">
<title>INPUT_ATTRIBUTE_NODE</title>
<ellipse fill="none" stroke="#000000" cx="317.4321" cy="-220.9993" rx="129.6356" ry="18"/>
<text text-anchor="middle" x="317.4321" y="-216.7993" font-family="Times,serif" font-size="14.00" fill="#000000">INPUT_ATTRIBUTE_NODE</text>
</g>
<!-- INPUT_ATTRIBUTE_NODE&#45;&gt;forward -->
<g id="edge2" class="edge">
<title>INPUT_ATTRIBUTE_NODE-&gt;forward</title>
<path fill="none" stroke="#000000" d="M399.2291,-206.9524C457.5008,-196.9454 533.8886,-183.8275 582.9375,-175.4044"/>
<polygon fill="#000000" stroke="#000000" points="583.7093,-178.8231 592.9727,-173.681 582.5245,-171.9241 583.7093,-178.8231"/>
</g>
<!-- INPUT_NODE -->
<g id="node4" class="node">
<title>INPUT_NODE</title>
<ellipse fill="none" stroke="#000000" cx="71.1037" cy="-112.9993" rx="71.2075" ry="18"/>
<text text-anchor="middle" x="71.1037" y="-108.7993" font-family="Times,serif" font-size="14.00" fill="#000000">INPUT_NODE</text>
</g>
<!-- INPUT_NODE&#45;&gt;INPUT_ATTRIBUTE_NODE -->
<g id="edge3" class="edge">
<title>INPUT_NODE-&gt;INPUT_ATTRIBUTE_NODE</title>
<path fill="none" stroke="#000000" d="M88.7653,-130.4882C108.7384,-149.2107 143.0764,-178.3306 178.2073,-193.9993 189.0991,-198.8571 200.8534,-202.8432 212.754,-206.1136"/>
<polygon fill="#000000" stroke="#000000" points="212.2121,-209.5883 222.7692,-208.6958 213.9598,-202.8099 212.2121,-209.5883"/>
</g>
<!-- INPUT_ATTRIBUTE_NODE_1 -->
<g id="node7" class="node">
<title>INPUT_ATTRIBUTE_NODE_1</title>
<ellipse fill="none" stroke="#000000" cx="317.4321" cy="-112.9993" rx="139.4498" ry="18"/>
<text text-anchor="middle" x="317.4321" y="-108.7993" font-family="Times,serif" font-size="14.00" fill="#000000">INPUT_ATTRIBUTE_NODE_1</text>
</g>
<!-- INPUT_NODE&#45;&gt;INPUT_ATTRIBUTE_NODE_1 -->
<g id="edge7" class="edge">
<title>INPUT_NODE-&gt;INPUT_ATTRIBUTE_NODE_1</title>
<path fill="none" stroke="#000000" d="M142.352,-112.9993C150.611,-112.9993 159.2512,-112.9993 168.0797,-112.9993"/>
<polygon fill="#000000" stroke="#000000" points="168.117,-116.4994 178.117,-112.9993 168.1169,-109.4994 168.117,-116.4994"/>
</g>
<!-- INPUT_ATTRIBUTE_NODE_2 -->
<g id="node9" class="node">
<title>INPUT_ATTRIBUTE_NODE_2</title>
<ellipse fill="none" stroke="#000000" cx="631.8815" cy="-23.9993" rx="139.4498" ry="18"/>
<text text-anchor="middle" x="631.8815" y="-19.7993" font-family="Times,serif" font-size="14.00" fill="#000000">INPUT_ATTRIBUTE_NODE_2</text>
</g>
<!-- INPUT_NODE&#45;&gt;INPUT_ATTRIBUTE_NODE_2 -->
<g id="edge10" class="edge">
<title>INPUT_NODE-&gt;INPUT_ATTRIBUTE_NODE_2</title>
<path fill="none" stroke="#000000" d="M87.2469,-95.3984C106.6303,-75.6739 141.1872,-44.7859 178.2073,-31.9993 295.6675,8.5712 440.637,2.1789 534.6097,-8.7031"/>
<polygon fill="#000000" stroke="#000000" points="534.3298,-12.1945 544.6751,-9.9085 535.1622,-5.2442 534.3298,-12.1945"/>
</g>
<!-- Model -->
<g id="node5" class="node">
<title>Model</title>
<ellipse fill="none" stroke="#000000" cx="317.4321" cy="-166.9993" rx="36.4975" ry="18"/>
<text text-anchor="middle" x="317.4321" y="-162.7993" font-family="Times,serif" font-size="14.00" fill="#000000">Model</text>
</g>
<!-- Model&#45;&gt;forward -->
<g id="edge4" class="edge">
<title>Model-&gt;forward</title>
<path fill="none" stroke="#000000" d="M353.8106,-166.9993C409.4771,-166.9993 516.0371,-166.9993 579.8596,-166.9993"/>
<polygon fill="#000000" stroke="#000000" points="580.1051,-170.4994 590.1051,-166.9993 580.105,-163.4994 580.1051,-170.4994"/>
</g>
<!-- forward_1 -->
<g id="node6" class="node">
<title>forward_1</title>
<ellipse fill="none" stroke="#000000" cx="631.8815" cy="-100.9993" rx="51.0069" ry="18"/>
<text text-anchor="middle" x="631.8815" y="-96.7993" font-family="Times,serif" font-size="14.00" fill="#000000">forward_1</text>
</g>
<!-- forward_1&#45;&gt;combine -->
<g id="edge5" class="edge">
<title>forward_1-&gt;combine</title>
<path fill="none" stroke="#000000" d="M683.3482,-100.9993C717.3417,-100.9993 761.8443,-100.9993 796.5128,-100.9993"/>
<polygon fill="#000000" stroke="#000000" points="796.9338,-104.4994 806.9338,-100.9993 796.9337,-97.4994 796.9338,-104.4994"/>
</g>
<!-- INPUT_ATTRIBUTE_NODE_1&#45;&gt;forward_1 -->
<g id="edge6" class="edge">
<title>INPUT_ATTRIBUTE_NODE_1-&gt;forward_1</title>
<path fill="none" stroke="#000000" d="M451.2429,-107.8928C492.7505,-106.3088 536.4851,-104.6398 570.5235,-103.3408"/>
<polygon fill="#000000" stroke="#000000" points="570.9034,-106.829 580.7627,-102.9501 570.6364,-99.834 570.9034,-106.829"/>
</g>
<!-- Model_1 -->
<g id="node8" class="node">
<title>Model_1</title>
<ellipse fill="none" stroke="#000000" cx="317.4321" cy="-58.9993" rx="45.8099" ry="18"/>
<text text-anchor="middle" x="317.4321" y="-54.7993" font-family="Times,serif" font-size="14.00" fill="#000000">Model_1</text>
</g>
<!-- Model_1&#45;&gt;forward_1 -->
<g id="edge8" class="edge">
<title>Model_1-&gt;forward_1</title>
<path fill="none" stroke="#000000" d="M361.1549,-64.8392C416.6246,-72.2481 512.4536,-85.0477 573.9589,-93.2627"/>
<polygon fill="#000000" stroke="#000000" points="573.5235,-96.7356 583.8989,-94.5904 574.4503,-89.7972 573.5235,-96.7356"/>
</g>
<!-- INPUT_ATTRIBUTE_NODE_2&#45;&gt;combine -->
<g id="edge9" class="edge">
<title>INPUT_ATTRIBUTE_NODE_2-&gt;combine</title>
<path fill="none" stroke="#000000" d="M680.0552,-40.8972C718.2871,-54.3079 771.2587,-72.8889 808.1447,-85.8274"/>
<polygon fill="#000000" stroke="#000000" points="807.0311,-89.1459 817.626,-89.1532 809.3482,-82.5404 807.0311,-89.1459"/>
</g>
</g>
</svg>