<?xml version="1.0" encoding="UTF-8" standalone="no"?><!DOCTYPE svg PUBLIC "-//W3C//DTD SVG 1.1//EN" "http://www.w3.org/Graphics/SVG/1.1/DTD/svg11.dtd"><!-- Generated by graphviz version 2.40.1 (20161225.0304)
 --><!-- Title: G Pages: 1 --><svg xmlns="http://www.w3.org/2000/svg" xmlns:xlink="http://www.w3.org/1999/xlink" width="565pt" height="98pt" viewBox="0.00 0.00 564.53 98.00">
<g id="graph0" class="graph" transform="scale(1 1) rotate(0) translate(4 94)">
<title>G</title>
<polygon fill="#ffffff" stroke="transparent" points="-4,4 -4,-94 560.5347,-94 560.5347,4 -4,4"/>
<!-- INPUT_ATTRIBUTE_NODE -->
<g id="node1" class="node">
<title>INPUT_ATTRIBUTE_NODE</title>
<ellipse fill="none" stroke="#000000" cx="307.7751" cy="-18" rx="129.6356" ry="18"/>
<text text-anchor="middle" x="307.7751" y="-13.8" font-family="Times,serif" font-size="14.00" fill="#000000">INPUT_ATTRIBUTE_NODE</text>
</g>
<!-- forward -->
<g id="node2" class="node">
<title>forward</title>
<ellipse fill="none" stroke="#000000" cx="514.9388" cy="-45" rx="41.692" ry="18"/>
<text text-anchor="middle" x="514.9388" y="-40.8" font-family="Times,serif" font-size="14.00" fill="#000000">forward</text>
</g>
<!-- INPUT_ATTRIBUTE_NODE&#45;&gt;forward -->
<g id="edge1" class="edge">
<title>INPUT_ATTRIBUTE_NODE-&gt;forward</title>
<path fill="none" stroke="#000000" d="M402.566,-30.3543C424.0506,-33.1544 446.0432,-36.0207 464.8109,-38.4667"/>
<polygon fill="#000000" stroke="#000000" points="464.5134,-41.9575 474.8819,-39.7793 465.4182,-35.0162 464.5134,-41.9575"/>
</g>
<!-- INPUT_NODE -->
<g id="node3" class="node">
<title>INPUT_NODE</title>
<ellipse fill="none" stroke="#000000" cx="71.1037" cy="-18" rx="71.2075" ry="18"/>
<text text-anchor="middle" x="71.1037" y="-13.8" font-family="Times,serif" font-size="14.00" fill="#000000">INPUT_NODE</text>
</g>
<!-- INPUT_NODE&#45;&gt;INPUT_ATTRIBUTE_NODE -->
<g id="edge2" class="edge">
<title>INPUT_NODE-&gt;INPUT_ATTRIBUTE_NODE</title>
<path fill="none" stroke="#000000" d="M142.4339,-18C150.5534,-18 159.0255,-18 167.6578,-18"/>
<polygon fill="#000000" stroke="#000000" points="167.8535,-21.5001 177.8534,-18 167.8534,-14.5001 167.8535,-21.5001"/>
</g>
<!-- Model -->
<g id="node4" class="node">
<title>Model</title>
<ellipse fill="none" stroke="#000000" cx="307.7751" cy="-72" rx="36.4975" ry="18"/>
<text text-anchor="middle" x="307.7751" y="-67.8" font-family="Times,serif" font-size="14.00" fill="#000000">Model</text>
</g>
<!-- Model&#45;&gt;forward -->
<g id="edge3" class="edge">
<title>Model-&gt;forward</title>
<path fill="none" stroke="#000000" d="M342.9176,-67.4198C376.3669,-63.0603 427.0511,-56.4546 464.7494,-51.5413"/>
<polygon fill="#000000" stroke="#000000" points="465.549,-54.9667 475.0128,-50.2036 464.6443,-48.0254 465.549,-54.9667"/>
</g>
</g>
</svg>